<?xml version="1.0" standalone="no"?>
<!DOCTYPE svg PUBLIC "-//W3C//DTD SVG 20010904//EN"
 "http://www.w3.org/TR/2001/REC-SVG-20010904/DTD/svg10.dtd">
<svg version="1.0" xmlns="http://www.w3.org/2000/svg"
 width="3130.000000pt" height="3130.000000pt" viewBox="0 0 3130.000000 3130.000000"
 preserveAspectRatio="xMidYMid meet">
<metadata>
Created by potrace 1.11, written by Peter Selinger 2001-2013
</metadata>
<g transform="translate(0.000000,3130.000000) scale(0.100000,-0.100000)"
fill="#000000" stroke="none">
<path d="M6809 28131 c-38 -12 -56 -23 -175 -106 -355 -250 -902 -521 -1618
-802 -191 -75 -578 -216 -733 -267 -45 -15 -101 -40 -124 -55 -89 -60 -134
-178 -107 -277 10 -34 144 -264 401 -686 212 -349 389 -641 392 -649 3 -9
-120 -139 -347 -366 l-353 -352 -185 -21 c-643 -73 -841 -100 -877 -119 -59
-30 -93 -73 -348 -426 -131 -181 -331 -457 -443 -613 l-205 -284 -46 6 c-97
13 -955 86 -1004 86 -64 0 -139 -34 -183 -81 -112 -120 -256 -426 -339 -722
-91 -324 -135 -723 -96 -891 16 -72 69 -134 145 -170 62 -29 118 -90 263 -286
494 -666 1656 -2579 2801 -4610 l82 -144 0 -276 c0 -274 0 -275 26 -330 42
-90 228 -265 714 -670 234 -195 736 -598 1027 -825 l141 -110 27 -85 c136
-434 408 -915 787 -1392 l70 -88 -40 -102 c-112 -289 -158 -514 -169 -823 -24
-672 220 -1429 710 -2205 141 -224 377 -540 491 -658 79 -83 94 -88 383 -127
142 -19 270 -38 285 -41 17 -3 164 -137 419 -380 l393 -374 27 -135 c82 -411
272 -844 552 -1265 39 -58 94 -134 122 -170 46 -59 53 -74 69 -155 74 -381
320 -790 701 -1170 190 -189 384 -347 580 -470 l89 -55 32 -83 c73 -189 196
-423 353 -672 126 -202 158 -236 245 -265 88 -29 221 8 274 75 12 15 30 25 45
25 33 0 141 -23 232 -50 101 -29 159 -26 232 10 86 43 143 127 143 211 0 36
53 197 123 370 55 135 205 481 213 488 2 2 112 -59 246 -135 l242 -139 191 1
c104 1 303 7 440 13 623 30 1886 25 2470 -10 389 -22 892 -72 927 -90 10 -5
173 -118 363 -250 190 -132 364 -249 388 -259 73 -34 184 -22 252 27 14 10
284 347 600 748 l575 731 422 244 c232 135 548 318 702 407 154 89 281 161
282 160 1 -1 464 -625 1028 -1387 565 -762 1033 -1389 1040 -1394 9 -6 251
154 815 539 695 475 799 550 789 563 -7 9 -374 441 -816 960 -441 520 -801
946 -800 947 2 2 194 64 428 138 234 74 587 187 785 250 198 64 664 212 1035
330 1420 453 1833 584 2380 759 311 99 718 229 905 288 964 307 881 278 934
332 44 45 60 77 77 161 58 280 451 1208 1007 2377 137 289 140 296 141 365 1
60 -3 77 -29 122 -50 88 -1047 1423 -1092 1462 -71 64 12 55 -1118 121 -810
48 -1616 91 -1812 97 l-213 6 -47 61 c-240 306 -1059 1175 -2134 2261 l-416
420 -338 505 c-186 278 -450 672 -587 875 l-249 371 211 424 210 425 0 70 c0
47 -7 84 -20 113 -13 28 -117 143 -323 355 -669 687 -1432 1517 -1922 2087
-430 502 -629 773 -650 885 -15 84 -73 157 -155 194 -43 19 -65 21 -406 21
l-361 0 -36 123 c-20 67 -43 151 -52 187 -28 110 -37 133 -76 191 -155 229
-502 426 -943 535 l-140 34 -1697 0 -1697 0 -953 791 c-525 436 -1071 889
-1214 1008 -143 118 -417 346 -610 506 -1182 982 -1479 1226 -1517 1248 -24
13 -270 146 -548 294 -278 149 -738 395 -1022 547 l-518 277 -377 90 c-208 49
-538 127 -733 174 -342 82 -405 92 -461 76z m239 -568 l72 -17 0 -333 0 -333
150 0 150 0 0 295 c0 194 4 295 10 295 6 0 180 -40 388 -89 l377 -89 400 -215
c220 -118 673 -361 1006 -539 464 -249 623 -339 679 -384 l72 -59 -36 -14 -36
-14 0 -139 0 -139 23 6 c30 9 196 90 229 111 26 18 27 18 82 -30 l56 -48 0
-474 0 -474 155 0 155 0 2 344 3 344 650 -540 c358 -297 999 -829 1425 -1183
426 -354 909 -755 1073 -892 449 -373 433 -363 560 -363 l65 0 -39 -42 c-80
-88 -136 -236 -159 -421 -19 -145 -8 -494 19 -616 42 -193 136 -327 278 -394
66 -31 72 -32 204 -32 l135 0 76 38 c208 102 298 332 298 757 0 334 -52 540
-169 668 l-39 42 1369 0 c1512 0 1393 5 1608 -66 139 -46 311 -131 386 -191
58 -47 60 -51 83 -133 13 -47 50 -172 82 -278 l59 -193 -16 -62 c-20 -77 -22
-315 -3 -402 37 -179 153 -278 306 -262 170 17 264 172 264 432 l0 85 191 -2
191 -3 63 -100 c136 -216 441 -598 833 -1045 l172 -195 -33 -27 c-17 -15 -74
-49 -124 -75 l-93 -47 0 -134 0 -134 28 6 c52 12 229 107 290 156 34 28 64 50
67 50 3 0 6 -253 7 -562 l3 -563 153 -3 152 -3 0 418 0 418 58 -60 c31 -33
222 -236 423 -450 202 -215 459 -486 572 -604 l205 -214 -53 -112 c-29 -62
-57 -120 -62 -130 -7 -12 -15 4 -32 66 -31 116 -77 204 -141 270 -88 90 -188
129 -330 129 -344 0 -510 -264 -510 -810 0 -253 38 -460 106 -575 40 -70 121
-142 201 -182 67 -33 83 -37 176 -41 155 -7 255 27 352 119 l52 49 275 -413
c152 -226 415 -619 584 -872 l308 -460 480 -485 c1118 -1128 2002 -2068 2131
-2267 90 -138 136 -165 288 -171 l109 -4 -7 -26 c-10 -41 -7 -380 5 -474 25
-201 76 -325 173 -420 92 -90 187 -127 327 -128 140 0 238 39 328 130 127 129
181 334 182 688 l0 183 48 -6 c26 -2 144 -9 262 -15 118 -6 239 -13 268 -16
50 -5 52 -7 52 -35 0 -27 3 -30 23 -23 12 3 39 15 59 25 27 14 59 19 113 19
l75 0 0 -335 0 -335 105 0 105 0 0 325 0 325 48 0 c26 0 186 -9 356 -20 268
-17 312 -22 327 -37 32 -34 832 -1118 836 -1133 2 -8 -30 -87 -73 -175 -402
-841 -814 -1796 -944 -2187 l-42 -127 -87 -27 c-47 -15 -92 -27 -99 -28 -9 -1
-22 30 -37 90 -67 265 -229 404 -470 404 -243 0 -409 -147 -474 -420 -17 -71
-35 -218 -44 -365 l-2 -39 -105 -34 c-353 -114 -411 -130 -404 -114 49 112 64
369 31 512 -22 94 -66 172 -118 210 -48 34 -133 54 -192 45 -187 -30 -268
-193 -254 -510 8 -190 39 -281 118 -349 24 -20 41 -38 38 -40 -5 -4 -88 -31
-639 -207 -245 -78 -451 -144 -457 -146 -10 -4 -13 145 -13 726 l0 731 -127
-1 -128 0 -27 -57 c-15 -31 -47 -79 -70 -106 -56 -65 -182 -157 -274 -202
l-74 -35 0 -139 0 -139 82 34 c98 42 170 84 249 147 l59 48 0 -555 0 -554 -82
-26 c-182 -57 -1314 -418 -1325 -422 -10 -4 -13 30 -13 151 l0 156 -124 0
-125 0 -32 -60 c-18 -34 -51 -82 -73 -107 -55 -63 -182 -155 -272 -199 l-74
-35 0 -67 0 -67 -253 -80 c-138 -43 -317 -100 -396 -126 l-144 -47 -49 57 -48
56 -2 280 -3 280 -81 3 -82 3 -27 -48 c-31 -53 -103 -133 -121 -133 -10 0
-1403 1630 -1412 1652 -2 5 57 72 132 148 350 361 669 784 915 1215 l91 160 0
-388 0 -388 153 3 152 3 2 730 3 730 50 145 c163 474 263 954 305 1470 17 203
20 691 5 890 -21 289 -108 865 -149 993 -11 34 -43 142 -70 239 -209 735 -575
1442 -1067 2059 -137 173 -233 280 -421 469 l-164 166 31 59 c48 95 63 185 57
360 -3 117 -9 165 -26 217 -42 132 -119 197 -242 206 -182 13 -289 -109 -308
-351 l-6 -77 -70 51 c-195 144 -554 365 -781 481 l-84 43 0 88 0 87 -125 0
c-121 0 -125 -1 -137 -24 l-13 -24 -120 50 c-176 73 -564 200 -770 252 -561
141 -1140 201 -1701 176 -211 -9 -416 -26 -556 -46 l-48 -7 0 787 0 786 -124
0 -124 0 -12 -32 c-48 -120 -214 -272 -376 -344 l-54 -24 0 -135 c0 -90 4
-135 11 -135 17 0 148 60 203 93 28 17 79 52 114 79 l62 48 0 -570 0 -570 78
-1 77 0 -165 -34 c-495 -100 -955 -251 -1379 -451 -74 -35 -136 -64 -137 -64
-2 0 -4 101 -4 225 l0 225 -123 0 -123 0 -26 -52 c-53 -108 -133 -188 -278
-276 -36 -21 -82 -45 -102 -53 l-38 -13 0 -138 c0 -92 4 -138 11 -138 17 0
148 60 203 93 28 17 79 52 114 79 l62 48 0 -84 0 -84 -64 -36 c-183 -102 -537
-354 -781 -554 -165 -135 -598 -567 -738 -735 -776 -937 -1238 -2027 -1362
-3218 -102 -986 51 -2011 438 -2924 449 -1058 1209 -1980 2157 -2616 822 -551
1713 -872 2730 -985 196 -21 766 -30 981 -15 818 58 1541 255 2265 616 l202
100 537 -724 c295 -398 539 -729 541 -735 5 -12 -17 -25 -881 -526 -286 -166
-533 -314 -548 -328 -16 -15 -254 -314 -529 -664 l-501 -637 -71 51 c-39 27
-110 77 -158 110 -49 33 -88 63 -87 67 0 3 24 17 52 31 117 57 178 243 162
492 -14 227 -81 346 -214 385 -134 39 -265 -23 -322 -151 -46 -105 -62 -322
-35 -476 8 -41 13 -76 11 -77 -1 -2 -51 4 -111 12 -170 24 -452 53 -644 65
-96 6 -185 13 -197 16 l-23 4 0 465 0 465 -124 0 -124 0 -27 -56 c-54 -111
-205 -243 -359 -315 l-66 -31 0 -139 0 -139 53 21 c92 36 202 98 265 149 34
28 64 50 67 50 3 0 5 -104 5 -231 l0 -232 -52 6 c-29 4 -225 10 -435 13 l-383
7 0 434 0 433 -84 0 -84 0 -30 -54 c-39 -67 -116 -136 -209 -184 l-73 -37 0
-93 c0 -92 0 -93 23 -87 46 14 129 58 187 101 l60 44 0 -278 0 -279 -472 -6
c-260 -3 -473 -5 -473 -4 -1 1 3 56 8 122 20 242 -20 530 -95 683 -62 125
-180 218 -307 242 -174 33 -334 -13 -440 -125 -115 -122 -168 -301 -180 -607
l-6 -167 -130 75 c-242 141 -289 155 -400 117 -85 -28 -119 -75 -224 -298
-116 -249 -255 -573 -312 -728 -34 -95 -46 -116 -58 -111 -9 4 -81 7 -160 8
l-144 2 -49 84 c-85 145 -204 394 -233 487 -48 153 -79 194 -187 248 -57 29
-162 98 -270 179 l-68 50 0 363 0 363 -123 0 -123 0 -23 -47 c-35 -72 -88
-140 -144 -184 -27 -21 -52 -39 -55 -39 -12 1 -129 163 -188 260 -69 114 -114
215 -147 330 l-25 85 60 12 c206 42 333 207 382 493 49 286 17 668 -69 841
-91 181 -230 269 -427 269 -263 0 -432 -177 -488 -509 l-12 -75 -39 92 c-82
198 -136 384 -164 568 -9 60 -23 128 -30 152 l-14 42 75 0 74 0 0 790 0 790
-124 0 -124 0 -28 -57 c-56 -112 -210 -246 -359 -314 l-65 -29 0 -135 c0 -88
4 -135 11 -135 20 0 152 61 212 97 34 20 85 56 114 80 l53 43 0 -481 0 -481
-98 93 c-557 534 -731 698 -755 713 l-27 18 0 194 0 194 -84 0 -84 0 -30 -54
c-39 -67 -116 -136 -209 -184 -49 -25 -73 -43 -73 -55 0 -16 -6 -17 -52 -11
-59 8 -56 5 -185 176 -321 426 -584 911 -729 1345 -101 299 -147 569 -147 853
0 342 55 578 207 889 41 84 46 102 46 160 0 80 -20 127 -82 196 -25 28 -95
113 -157 189 -103 129 -111 142 -111 183 0 41 -1 43 -29 43 -25 0 -37 10 -77
66 -98 137 -228 356 -308 519 -95 191 -141 310 -186 476 -20 74 -41 129 -60
156 -21 29 -30 53 -30 81 0 126 -37 268 -89 340 -79 107 -261 125 -378 36
l-33 -25 -43 33 c-177 139 -649 523 -817 664 -290 244 -395 339 -393 355 1 8
13 57 26 109 78 299 56 730 -48 946 -79 163 -199 247 -378 262 l-79 7 -72 125
c-40 69 -153 265 -252 435 l-179 310 -5 505 -5 505 -121 3 -121 3 -32 -66
c-30 -61 -135 -185 -156 -185 -8 1 -511 828 -524 862 -1 5 7 32 19 59 56 131
87 412 70 642 -25 355 -115 539 -309 631 -64 30 -70 31 -201 31 -126 -1 -139
-2 -195 -28 -33 -16 -82 -46 -108 -69 -27 -22 -50 -38 -53 -35 -3 3 -54 76
-115 163 l-109 158 0 701 0 700 450 -39 c435 -39 451 -39 502 -23 29 9 69 30
88 46 19 16 163 207 320 424 l285 395 3 -239 2 -239 155 0 155 0 0 458 0 458
28 31 27 31 395 46 c217 25 405 46 418 46 19 0 22 -4 17 -21 -4 -11 -7 -84 -7
-162 0 -211 28 -312 109 -389 50 -49 99 -68 174 -68 81 0 130 16 178 57 80 68
121 201 121 395 0 199 -32 311 -112 395 l-41 41 314 316 313 316 123 0 123 0
0 795 0 795 -122 0 -123 0 -30 -63 c-34 -71 -128 -171 -218 -231 -31 -22 -59
-37 -61 -35 -23 22 -215 354 -209 360 4 4 85 35 178 69 490 179 952 377 1370
588 216 109 532 291 628 362 27 20 49 29 62 26 11 -3 53 -13 93 -23z m-1870
-1726 l-3 -71 -59 98 -59 99 29 21 c16 12 42 33 59 48 l30 26 3 -74 c2 -41 2
-107 0 -147z m-653 -1691 c39 -39 49 -96 49 -286 0 -215 -14 -281 -68 -307
-51 -24 -85 -8 -116 52 -24 48 -25 56 -25 253 l0 202 60 55 c33 30 64 54 68
55 4 0 19 -11 32 -24z m10575 -1716 c33 0 88 -58 109 -115 35 -92 44 -207 38
-488 -5 -268 -12 -328 -51 -410 -53 -109 -204 -115 -263 -11 -47 83 -55 143
-60 412 -7 362 15 508 86 576 29 28 83 48 109 40 8 -2 22 -4 32 -4z m-14070
-477 l0 -317 -46 44 -46 45 6 85 c10 129 69 460 83 460 1 0 3 -143 3 -317z
m18204 -430 l89 -6 -7 -121 c-4 -66 -11 -138 -17 -160 -30 -110 -137 -117
-180 -11 -6 17 -14 95 -17 174 l-5 144 24 -7 c13 -4 64 -10 113 -13z m-17226
-742 c33 -23 66 -87 83 -158 14 -63 27 -343 21 -461 l-4 -93 -46 73 c-24 40
-103 164 -173 275 -71 112 -129 213 -129 226 0 13 11 46 25 74 45 89 147 118
223 64z m20099 -2480 c44 -21 79 -73 102 -156 21 -74 32 -362 22 -542 -16
-257 -47 -344 -135 -378 -59 -23 -107 -14 -152 28 -69 64 -94 200 -94 507 0
363 35 502 135 546 41 18 73 17 122 -5z m-4972 -41 c515 -32 966 -122 1425
-283 1458 -511 2618 -1647 3158 -3092 366 -980 428 -2058 177 -3072 -96 -389
-224 -730 -414 -1108 l-126 -250 -3 1568 -2 1567 -953 -2 -952 -3 -3 -2147 -2
-2148 490 0 c269 0 490 -2 490 -4 0 -18 -254 -237 -430 -370 -278 -211 -523
-364 -840 -522 -1011 -504 -2176 -662 -3295 -448 -779 150 -1519 479 -2158
961 -156 118 -437 359 -437 375 0 5 196 8 435 8 l435 0 0 895 0 895 -900 0
-900 0 -2 -311 -3 -311 -77 143 c-788 1466 -823 3229 -94 4734 261 539 570
971 1005 1406 348 347 682 605 1091 839 868 499 1899 742 2885 680z m3622
-182 c38 -41 48 -101 47 -293 -1 -126 -5 -193 -15 -223 l-14 -42 -93 77 -94
78 5 155 c5 163 16 219 48 251 27 27 89 26 116 -3z m-14954 -3345 c17 -16 47
-101 47 -135 0 -24 -6 -20 -104 56 -62 49 -73 62 -64 74 29 34 85 36 121 5z
m21470 -2310 c4 -2 7 -100 7 -216 0 -345 -32 -482 -124 -526 -52 -26 -79 -26
-133 -2 -46 21 -68 55 -98 151 -15 45 -19 106 -22 334 l-5 278 183 -7 c101 -4
187 -9 192 -12z m-19066 -3330 c-3 -3 -11 -2 -17 2 -8 5 -7 11 2 22 12 15 13
14 16 -1 2 -10 1 -20 -1 -23z m20396 -270 c53 -27 93 -122 104 -250 l6 -71
-169 -55 c-93 -30 -179 -57 -192 -61 l-23 -8 7 99 c11 177 43 295 88 332 47
39 119 45 179 14z m-1300 -93 c45 -35 52 -77 52 -300 0 -185 -2 -209 -20 -245
-51 -101 -147 -80 -176 39 -18 70 -17 354 0 425 23 91 86 127 144 81z m-16996
-1232 c59 -55 80 -133 94 -347 8 -119 8 -212 0 -336 -16 -255 -52 -349 -142
-376 l-39 -12 -58 63 c-113 126 -123 142 -133 222 -11 101 -11 423 1 538 15
145 50 233 103 262 59 31 132 26 174 -14z m3619 -1939 c40 -24 79 -110 96
-209 17 -107 18 -568 0 -579 -15 -9 -353 -24 -361 -15 -11 11 -13 412 -2 518
20 196 54 273 136 301 46 15 87 10 131 -16z m4057 -359 c39 -46 50 -121 45
-319 -3 -150 -6 -182 -23 -216 -53 -107 -161 -67 -181 68 -4 28 -7 120 -7 204
1 224 27 293 109 293 23 0 39 -8 57 -30z"/>
<path d="M7830 26492 c-257 -67 -380 -323 -380 -790 0 -343 53 -544 179 -671
103 -106 244 -151 404 -131 229 29 369 196 421 500 51 303 16 677 -81 862
-105 201 -314 290 -543 230z m220 -268 c65 -55 86 -131 101 -353 7 -117 7
-214 0 -335 -15 -237 -39 -315 -111 -363 -67 -46 -165 -20 -207 53 -41 72 -55
164 -61 394 -7 309 14 488 67 569 42 65 153 83 211 35z"/>
<path d="M9451 26273 c-38 -85 -124 -165 -234 -219 l-57 -28 0 -93 c0 -54 4
-93 10 -93 22 0 119 50 182 93 l68 47 2 -383 3 -382 105 0 105 0 0 540 0 540
-86 3 c-85 3 -86 3 -98 -25z"/>
<path d="M6596 26108 c-58 -16 -138 -99 -164 -170 -58 -157 -51 -474 13 -598
25 -47 97 -109 148 -126 60 -20 166 -15 214 9 119 62 167 189 167 437 0 251
-46 369 -169 432 -47 25 -151 32 -209 16z m129 -144 c9 -4 26 -25 38 -48 19
-37 22 -59 25 -222 6 -268 -17 -346 -101 -346 -84 0 -107 64 -107 303 0 188
11 261 46 296 23 23 64 30 99 17z"/>
<path d="M5900 24704 c-197 -53 -317 -231 -360 -534 -14 -98 -14 -416 0 -520
33 -239 107 -385 240 -470 147 -94 372 -95 518 -1 61 39 92 72 137 146 79 132
115 316 115 585 0 345 -56 552 -182 680 -61 62 -116 94 -193 114 -73 20 -202
19 -275 0z m181 -244 c76 -21 122 -108 140 -266 16 -139 6 -581 -15 -657 -27
-96 -52 -136 -99 -158 -53 -23 -81 -23 -134 0 -47 22 -80 76 -104 171 -20 78
-20 639 0 725 21 96 53 149 103 174 49 24 59 25 109 11z"/>
<path d="M11510 24549 c-116 -23 -232 -111 -295 -224 -81 -144 -110 -328 -102
-643 6 -248 24 -348 82 -470 91 -192 287 -294 502 -262 103 16 175 52 248 125
131 130 185 328 185 672 0 258 -25 412 -90 548 -38 79 -121 172 -188 208 -92
50 -228 68 -342 46z m190 -271 c19 -13 44 -43 56 -67 42 -85 49 -147 49 -456
0 -309 -8 -383 -49 -464 -32 -65 -65 -86 -136 -86 -71 0 -104 21 -137 86 -43
84 -48 136 -48 464 0 328 7 390 53 470 43 73 144 98 212 53z"/>
<path d="M7500 24460 c-11 -23 -38 -59 -58 -82 -40 -45 -170 -135 -209 -144
-22 -6 -23 -10 -23 -105 l0 -98 38 16 c70 29 117 55 169 94 29 22 55 39 58 39
3 0 5 -173 5 -385 l0 -385 105 0 105 0 -2 543 -3 542 -82 3 -82 3 -21 -41z"/>
<path d="M8570 24421 c-57 -113 -201 -241 -355 -312 l-65 -31 0 -135 0 -135
28 6 c56 14 229 108 295 161 l67 55 0 -570 0 -570 155 0 155 0 0 795 0 795
-125 0 -125 0 -30 -59z"/>
<path d="M10006 24128 c-58 -16 -138 -99 -164 -169 -55 -148 -55 -421 -1 -566
44 -115 149 -180 278 -171 131 10 205 81 248 241 24 89 23 347 -1 437 -30 109
-76 174 -150 212 -48 25 -152 33 -210 16z m129 -144 c9 -4 26 -25 38 -48 19
-37 22 -59 25 -222 6 -268 -17 -346 -101 -346 -84 0 -107 64 -107 303 0 188
11 261 46 296 23 23 64 30 99 17z"/>
<path d="M3687 22771 c-114 -37 -197 -114 -258 -236 -48 -98 -74 -196 -88
-340 -29 -289 3 -591 81 -754 59 -124 188 -227 317 -251 290 -54 506 98 580
409 57 239 50 631 -15 836 -49 151 -157 281 -271 326 -82 32 -263 37 -346 10z
m242 -258 c38 -28 69 -91 88 -175 21 -93 24 -562 5 -678 -25 -147 -85 -223
-176 -223 -142 0 -195 144 -196 538 0 256 24 424 72 496 46 68 144 88 207 42z"/>
<path d="M6670 22630 c-58 -115 -199 -238 -354 -311 l-66 -31 0 -139 0 -139
50 20 c114 45 242 121 308 183 l32 31 0 -572 0 -572 155 0 155 0 0 795 0 795
-125 0 -125 0 -30 -60z"/>
<path d="M9340 22679 c-78 -15 -164 -65 -224 -129 -124 -135 -176 -333 -176
-678 0 -348 65 -569 201 -685 154 -132 395 -150 564 -42 178 114 257 339 257
735 0 264 -24 401 -92 545 -97 204 -297 300 -530 254z m210 -287 c59 -59 80
-140 88 -345 4 -93 4 -241 0 -330 -12 -280 -55 -374 -175 -384 -91 -8 -143 43
-180 178 -26 95 -27 628 0 739 31 132 77 180 176 180 48 0 57 -3 91 -38z"/>
<path d="M5342 22557 c-40 -71 -127 -149 -212 -189 l-69 -33 0 -92 c-1 -79 1
-93 15 -93 26 0 168 78 213 116 l41 36 0 -391 0 -391 105 0 105 0 0 545 0 545
-84 0 -84 0 -30 -53z"/>
<path d="M12043 22573 c-24 -59 -90 -147 -141 -191 -71 -59 -178 -128 -238
-153 l-54 -23 0 -139 0 -138 23 6 c59 17 230 110 295 160 l72 55 0 -565 0
-565 155 0 155 0 -2 793 -3 792 -123 3 -123 3 -16 -38z"/>
<path d="M2505 22534 c-62 -16 -92 -30 -127 -62 -88 -80 -123 -213 -115 -441
6 -178 26 -255 87 -324 56 -63 115 -90 201 -90 174 0 267 116 288 359 17 195
-16 379 -83 467 -47 61 -178 109 -251 91z m92 -159 c12 -8 30 -36 40 -62 15
-41 18 -77 17 -243 0 -214 -9 -258 -57 -294 -22 -16 -33 -18 -64 -10 -50 12
-71 51 -84 160 -13 99 -6 317 12 378 21 75 84 107 136 71z"/>
<path d="M10892 22468 c-17 -29 -48 -69 -69 -90 -44 -42 -157 -116 -190 -124
-22 -6 -23 -10 -23 -105 l0 -98 38 16 c70 29 117 55 169 94 l53 39 2 -382 3
-383 105 0 105 0 0 540 0 540 -82 3 -81 3 -30 -53z"/>
<path d="M16516 22368 c-33 -79 -125 -164 -236 -219 l-60 -30 0 -89 c0 -76 3
-90 16 -90 27 0 139 57 196 100 l53 40 3 -385 2 -385 105 0 105 0 0 545 0 545
-85 0 -85 0 -14 -32z"/>
<path d="M8045 22331 c-58 -16 -84 -30 -119 -66 -76 -76 -106 -186 -106 -389
0 -214 27 -311 107 -388 52 -51 99 -68 183 -68 118 0 188 45 240 153 41 85 53
176 47 346 -7 220 -50 327 -155 384 -54 29 -145 42 -197 28z m120 -165 c34
-34 46 -85 52 -231 6 -148 -8 -283 -35 -329 -39 -67 -119 -56 -155 21 -20 44
-22 64 -22 238 0 210 11 272 53 305 34 27 77 25 107 -4z"/>
<path d="M17686 22218 c-52 -109 -218 -252 -361 -310 l-55 -23 0 -139 0 -138
26 6 c57 15 203 94 281 153 l83 62 2 -567 3 -567 150 0 150 0 3 793 2 792
-127 -1 -128 0 -29 -61z"/>
<path d="M13408 22260 c-139 -42 -208 -194 -208 -455 0 -237 55 -370 175 -430
58 -29 185 -28 240 2 76 40 121 107 151 223 21 80 24 316 5 405 -28 129 -101
227 -189 253 -44 14 -133 14 -174 2z m132 -150 c10 -5 27 -31 37 -57 15 -41
18 -78 18 -243 0 -165 -3 -202 -18 -243 -20 -51 -40 -67 -82 -67 -69 0 -92 43
-107 195 -8 83 -8 147 0 230 11 113 19 143 50 178 17 19 72 23 102 7z"/>
<path d="M7370 20912 c-258 -68 -380 -323 -380 -797 0 -339 55 -541 181 -668
179 -179 490 -179 661 1 128 133 181 330 181 667 1 268 -28 431 -100 567 -104
199 -317 289 -543 230z m236 -284 c51 -56 73 -144 85 -338 11 -185 -2 -471
-25 -558 -31 -114 -87 -167 -172 -160 -31 3 -63 13 -81 26 -33 23 -67 93 -84
170 -16 75 -23 486 -10 610 23 224 73 297 195 289 53 -3 62 -7 92 -39z"/>
<path d="M3376 20792 c-32 -64 -125 -149 -214 -195 l-72 -38 0 -94 0 -95 53
21 c63 25 108 51 164 96 23 18 44 33 47 33 3 0 6 -173 6 -385 l0 -385 105 0
105 0 -2 543 -3 542 -82 3 -82 3 -25 -49z"/>
<path d="M4918 20758 c-59 -121 -194 -243 -349 -316 l-79 -37 0 -131 c0 -72 3
-133 6 -136 17 -17 228 91 326 168 31 24 59 44 62 44 3 0 6 -254 6 -565 l0
-565 150 0 150 0 0 795 0 795 -123 0 -123 0 -26 -52z"/>
<path d="M10081 20752 c-57 -113 -185 -228 -338 -304 l-83 -41 0 -138 0 -139
50 20 c114 45 242 121 308 183 l32 31 0 -572 0 -573 153 3 152 3 3 793 2 792
-125 0 -125 0 -29 -58z"/>
<path d="M12759 20737 c-115 -39 -187 -102 -247 -215 -73 -138 -102 -297 -102
-566 0 -362 51 -550 185 -681 87 -85 189 -124 325 -125 278 -1 442 174 496
530 18 125 18 426 -1 550 -54 359 -216 531 -499 530 -68 0 -108 -6 -157 -23z
m208 -238 c116 -44 148 -182 140 -603 -5 -274 -12 -329 -58 -417 -21 -43 -80
-79 -129 -79 -49 0 -108 36 -130 79 -50 98 -55 145 -55 476 0 331 5 378 55
476 32 62 111 93 177 68z"/>
<path d="M8960 20718 c0 -51 -152 -193 -253 -238 l-47 -21 0 -94 c0 -52 2 -95
5 -95 19 0 148 67 201 105 l64 46 0 -385 0 -386 105 0 105 0 0 540 0 540 -90
0 c-65 0 -90 -3 -90 -12z"/>
<path d="M14339 20489 c-40 -80 -127 -156 -244 -214 l-40 -20 -3 -93 c-2 -66
1 -92 9 -92 24 0 159 71 208 110 l51 40 0 -385 0 -385 105 0 105 0 0 540 0
540 -85 0 -85 0 -21 -41z"/>
<path d="M18460 20459 c-132 -22 -245 -108 -314 -238 -144 -275 -138 -918 12
-1155 97 -155 282 -236 473 -208 295 43 438 304 439 800 1 489 -142 756 -430
801 -75 12 -103 12 -180 0z m195 -289 c74 -72 102 -255 91 -600 -10 -356 -53
-460 -190 -460 -126 0 -168 86 -188 378 -15 214 -1 480 31 582 31 100 84 143
169 137 43 -3 59 -9 87 -37z"/>
<path d="M6331 20446 c-52 -19 -107 -71 -135 -129 -71 -145 -75 -480 -6 -621
85 -177 339 -207 451 -54 83 115 111 366 63 576 -25 112 -78 187 -159 223 -47
22 -161 24 -214 5z m134 -136 c17 -6 34 -27 48 -57 20 -44 22 -63 22 -248 0
-218 -7 -260 -52 -295 -14 -11 -38 -20 -52 -20 -79 0 -105 76 -105 310 0 195
12 258 56 295 33 28 44 30 83 15z"/>
<path d="M11450 20371 c-143 -44 -210 -188 -210 -449 0 -244 53 -377 175 -437
58 -29 185 -28 240 2 98 52 146 146 165 327 14 127 1 280 -31 376 -27 79 -101
159 -165 178 -45 13 -135 15 -174 3z m130 -151 c10 -5 27 -31 37 -57 15 -41
18 -78 18 -243 0 -165 -3 -202 -18 -243 -21 -52 -40 -67 -87 -67 -40 0 -75 35
-91 91 -16 58 -17 379 -1 435 18 64 47 94 88 94 20 0 44 -4 54 -10z"/>
<path d="M20011 20315 c-33 -62 -123 -143 -209 -188 l-72 -38 0 -94 0 -95 51
20 c54 22 150 80 187 113 l22 20 0 -386 0 -387 105 0 105 0 0 540 0 540 -83 0
-82 0 -24 -45z"/>
<path d="M17125 20161 c-63 -28 -122 -102 -148 -185 -19 -63 -22 -93 -22 -256
0 -148 4 -196 17 -241 26 -84 74 -147 138 -183 48 -27 65 -31 130 -30 197 0
290 143 290 449 0 147 -13 232 -47 308 -30 67 -97 132 -152 147 -58 16 -161
12 -206 -9z m150 -133 c37 -17 54 -55 67 -150 12 -94 5 -322 -12 -382 -32
-110 -143 -114 -180 -6 -7 19 -14 100 -17 180 -8 215 16 338 70 360 30 12 42
12 72 -2z"/>
<path d="M5623 18965 c-216 -47 -345 -238 -384 -566 -18 -157 -7 -469 21 -594
57 -258 192 -402 407 -435 212 -33 403 66 493 255 74 155 108 414 90 683 -19
278 -74 435 -191 547 -115 110 -264 147 -436 110z m187 -260 c78 -40 109 -137
118 -368 14 -318 -8 -558 -57 -642 -60 -103 -207 -100 -261 5 -49 97 -55 144
-55 470 1 328 9 401 57 478 41 66 130 92 198 57z"/>
<path d="M10863 18969 c-151 -29 -264 -128 -331 -291 -64 -153 -92 -404 -73
-653 21 -271 65 -409 167 -515 98 -103 195 -144 339 -144 349 1 515 260 515
804 0 399 -94 653 -279 753 -88 49 -230 68 -338 46z m185 -269 c39 -24 76 -97
95 -186 8 -39 12 -156 12 -344 0 -308 -10 -390 -58 -474 -52 -92 -181 -102
-246 -20 -61 77 -89 344 -71 658 13 219 34 300 92 352 30 28 44 32 98 33 29 1
57 -6 78 -19z"/>
<path d="M8348 18868 c-58 -111 -219 -250 -365 -314 l-53 -24 0 -135 c0 -86 4
-135 10 -135 43 0 241 107 326 176 l54 44 0 -565 0 -565 155 0 155 0 0 790 0
790 -124 0 -125 0 -33 -62z"/>
<path d="M7256 18774 c-39 -82 -125 -160 -238 -215 l-48 -23 0 -94 c0 -92 0
-93 23 -86 43 13 140 65 188 100 l49 36 2 -384 3 -383 103 -3 102 -3 0 546 0
545 -83 0 -83 0 -18 -36z"/>
<path d="M12397 18661 c-37 -80 -162 -189 -255 -222 l-32 -11 0 -94 c0 -69 3
-94 13 -94 21 0 162 75 206 109 l41 32 2 -383 3 -383 105 0 105 0 0 540 0 540
-85 3 -85 2 -18 -39z"/>
<path d="M4390 18621 c-149 -48 -212 -182 -212 -451 1 -214 33 -325 116 -397
54 -48 114 -67 195 -61 125 9 201 75 244 212 19 62 22 93 22 246 0 153 -3 184
-22 246 -44 138 -126 206 -253 211 -36 1 -76 -1 -90 -6z m139 -167 c37 -47 45
-100 45 -284 0 -187 -10 -248 -47 -287 -22 -25 -74 -31 -107 -13 -10 5 -27 31
-37 57 -15 41 -18 78 -18 243 0 207 8 253 48 290 32 30 90 27 116 -6z"/>
<path d="M9766 18509 c-91 -22 -153 -89 -189 -204 -19 -61 -22 -92 -22 -250 0
-213 17 -289 82 -364 92 -109 274 -124 375 -33 90 81 123 209 115 446 -5 170
-24 245 -81 319 -57 75 -177 112 -280 86z m127 -161 c39 -36 49 -81 54 -244 8
-225 -14 -328 -77 -354 -39 -16 -85 1 -106 41 -35 69 -44 387 -14 493 24 80
92 110 143 64z"/>
<path d="M6431 17129 c-18 -51 -99 -157 -154 -201 -78 -62 -181 -127 -232
-146 l-45 -16 0 -138 c0 -99 3 -138 12 -138 16 0 144 59 203 94 28 16 78 51
113 78 l62 48 0 -570 0 -570 150 0 150 0 0 795 0 795 -124 0 -124 0 -11 -31z"/>
<path d="M9071 17034 c-226 -60 -342 -262 -372 -644 -24 -301 21 -600 112
-742 88 -136 225 -208 400 -208 152 0 271 55 357 163 101 126 152 342 152 640
0 213 -21 360 -71 497 -57 154 -181 268 -327 299 -71 15 -185 13 -251 -5z
m219 -263 c34 -24 66 -84 87 -162 15 -54 18 -109 18 -349 0 -310 -8 -389 -51
-477 -44 -92 -149 -119 -229 -59 -74 56 -98 191 -97 531 0 264 14 374 54 454
43 84 147 113 218 62z"/>
<path d="M5300 16984 c-30 -78 -127 -169 -242 -227 l-58 -29 0 -89 c0 -72 3
-89 15 -89 27 0 127 50 191 95 l64 46 0 -385 0 -386 105 0 105 0 0 545 0 545
-85 0 c-83 0 -86 -1 -95 -26z"/>
<path d="M10652 16816 c-41 -77 -157 -177 -251 -216 l-31 -12 0 -95 c0 -93 0
-94 23 -87 43 13 134 63 180 98 26 20 49 36 52 36 3 0 6 -172 7 -382 l3 -383
103 -3 102 -3 0 546 0 545 -83 0 -82 0 -23 -44z"/>
<path d="M7812 16661 c-135 -47 -194 -183 -194 -446 0 -214 30 -316 116 -392
80 -71 199 -85 297 -35 109 55 157 163 166 375 13 295 -57 463 -212 506 -57
16 -112 13 -173 -8z m153 -155 c13 -13 28 -41 34 -62 17 -62 24 -261 13 -361
-14 -115 -33 -158 -76 -173 -50 -16 -83 1 -109 57 -20 44 -22 63 -22 238 0
215 5 252 41 295 33 39 84 41 119 6z"/>
<path d="M7115 15301 c-113 -32 -215 -121 -273 -236 -63 -126 -92 -301 -92
-555 0 -408 71 -614 252 -730 85 -55 164 -74 292 -68 97 4 112 8 180 42 206
101 296 332 296 756 0 349 -55 552 -185 683 -111 113 -301 157 -470 108z m184
-241 c122 -35 156 -175 148 -603 -5 -268 -12 -328 -51 -410 -53 -110 -211
-114 -266 -7 -45 87 -52 143 -57 408 -6 274 4 408 37 495 22 59 62 104 106
117 39 11 44 11 83 0z"/>
<path d="M9822 15097 c-64 -124 -238 -268 -394 -326 l-28 -11 0 -135 c0 -126
1 -135 19 -135 33 0 233 107 309 165 l72 55 0 -570 0 -570 150 0 150 0 0 795
0 795 -122 0 -123 0 -33 -63z"/>
<path d="M8691 15034 c-33 -61 -135 -153 -216 -194 l-65 -33 0 -93 c0 -52 3
-94 7 -94 21 0 174 84 211 115 l42 37 0 -386 0 -386 110 0 110 0 0 540 0 540
-88 0 -87 0 -24 -46z"/>
<path d="M23465 14893 c-120 -43 -201 -115 -260 -233 -69 -138 -95 -290 -95
-555 0 -359 51 -546 183 -676 177 -173 480 -173 653 0 128 128 184 332 184
676 0 430 -90 660 -298 762 -74 37 -80 38 -196 41 -96 2 -131 -1 -171 -15z
m225 -251 c41 -22 72 -74 96 -157 22 -78 32 -518 15 -660 -19 -163 -65 -247
-145 -265 -82 -18 -151 25 -185 115 -31 82 -41 190 -41 430 0 363 29 493 122
538 44 22 95 21 138 -1z"/>
<path d="M7917 13274 c-3 -3 -18 -30 -32 -60 -53 -108 -184 -224 -346 -306
l-79 -40 0 -134 c0 -74 4 -134 8 -134 19 0 142 55 205 92 37 22 93 59 123 84
l54 44 0 -565 0 -565 155 0 155 0 0 795 0 795 -118 0 c-65 0 -121 -3 -125 -6z"/>
<path d="M10546 13269 c-92 -10 -186 -57 -252 -126 -133 -137 -194 -392 -181
-753 12 -318 59 -474 181 -595 118 -119 280 -161 456 -119 108 25 240 119 240
171 0 13 -11 83 -24 156 -55 295 -84 610 -91 974 -3 176 -8 239 -17 245 -28
17 -136 46 -188 50 -30 3 -86 1 -124 -3z m151 -269 c73 -44 100 -129 116 -357
8 -131 8 -215 -1 -345 -19 -291 -63 -380 -188 -380 -88 0 -141 59 -170 189 -8
39 -17 152 -21 268 -8 292 16 508 65 575 50 68 135 89 199 50z"/>
<path d="M24318 12902 c-53 -112 -198 -241 -353 -313 l-65 -31 0 -138 0 -138
53 20 c87 33 199 96 270 154 l67 54 0 -570 0 -570 150 0 150 0 0 795 0 795
-122 -1 -123 0 -27 -57z"/>
<path d="M9256 12916 c-56 -21 -86 -45 -123 -100 -52 -76 -65 -133 -70 -308
-8 -226 15 -329 88 -413 105 -119 312 -112 406 13 18 24 43 76 55 115 20 63
23 93 23 247 0 154 -3 184 -23 247 -43 137 -124 205 -251 210 -40 2 -82 -3
-105 -11z m149 -160 c40 -40 50 -96 50 -286 0 -242 -22 -310 -101 -310 -51 0
-70 14 -91 67 -15 40 -18 77 -18 223 0 206 7 259 41 300 33 39 84 41 119 6z"/>
<path d="M23172 12853 c-27 -76 -154 -192 -249 -229 l-43 -17 0 -93 c0 -54 4
-94 10 -94 23 0 127 54 186 95 l64 46 2 -383 3 -383 105 0 105 0 0 540 0 540
-86 3 -87 3 -10 -28z"/>
<path d="M25623 12566 c-114 -54 -173 -201 -173 -436 0 -234 55 -370 174 -432
58 -31 184 -31 242 -1 120 63 169 191 168 443 -1 247 -54 375 -179 431 -60 28
-166 25 -232 -5z m184 -151 c35 -39 45 -119 41 -314 -5 -229 -24 -281 -103
-281 -40 0 -65 18 -82 58 -39 92 -35 447 5 515 35 61 96 70 139 22z"/>
<path d="M8598 11481 c-191 -61 -298 -220 -344 -508 -23 -152 -15 -527 15
-656 52 -222 173 -366 346 -411 82 -22 209 -21 284 3 249 78 361 320 361 786
0 405 -85 639 -270 748 -98 57 -277 75 -392 38z m199 -242 c116 -43 149 -187
140 -612 -5 -264 -13 -321 -58 -408 -21 -43 -80 -79 -129 -79 -48 0 -108 36
-128 77 -53 103 -57 137 -57 473 0 268 3 324 17 377 28 99 51 138 100 162 48
24 74 26 115 10z"/>
<path d="M10156 11273 c-40 -84 -143 -176 -250 -224 l-46 -20 0 -89 c0 -49 3
-91 8 -93 12 -8 131 51 198 98 l64 46 0 -385 0 -386 105 0 105 0 0 545 0 545
-83 0 -83 0 -18 -37z"/>
<path d="M24998 11211 c-195 -51 -315 -228 -358 -531 -14 -98 -14 -416 0 -520
28 -201 84 -335 178 -421 102 -93 193 -124 352 -117 92 4 115 8 171 35 213
100 309 336 309 762 0 344 -57 553 -186 685 -111 112 -290 153 -466 107z m183
-241 c75 -21 121 -109 141 -269 6 -51 8 -190 5 -341 -5 -267 -13 -323 -57
-410 -55 -107 -213 -103 -265 7 -42 87 -47 131 -52 405 -8 427 26 574 141 607
42 12 46 12 87 1z"/>
<path d="M7319 11120 c-63 -11 -101 -32 -143 -81 -66 -78 -96 -196 -96 -379 1
-195 36 -317 112 -386 56 -50 101 -67 183 -68 59 0 78 4 125 29 97 53 141 144
161 331 12 112 1 260 -26 351 -44 149 -166 227 -316 203z m100 -156 c44 -31
54 -76 59 -259 6 -242 -14 -325 -81 -349 -20 -7 -36 -5 -61 7 -28 13 -38 26
-50 65 -34 115 -29 416 9 495 25 54 80 72 124 41z"/>
<path d="M26630 10960 c-42 -81 -144 -170 -247 -215 l-43 -19 0 -93 c0 -74 3
-93 14 -93 24 0 165 77 212 115 l44 36 0 -391 0 -391 103 3 102 3 3 543 2 542
-85 0 -85 0 -20 -40z"/>
<path d="M27717 10932 c-55 -115 -172 -221 -337 -307 l-90 -46 0 -135 0 -135
23 6 c56 16 231 110 296 160 l71 55 0 -565 0 -565 155 0 155 0 0 795 0 795
-122 0 -123 0 -28 -58z"/>
<path d="M23502 10689 c-124 -62 -182 -229 -169 -493 9 -178 40 -272 113 -336
55 -47 99 -63 180 -64 123 -1 205 61 254 190 31 84 45 251 32 371 -21 186 -66
276 -161 325 -70 37 -182 40 -249 7z m171 -139 c45 -35 52 -77 52 -295 0 -218
-7 -260 -52 -295 -59 -46 -121 -11 -144 83 -17 69 -17 355 0 424 22 89 88 127
144 83z"/>
<path d="M29072 10532 c-136 -49 -195 -185 -195 -447 0 -214 31 -316 117 -392
53 -46 101 -63 182 -63 188 0 284 156 284 461 0 232 -60 379 -176 434 -56 26
-148 29 -212 7z m145 -147 c42 -30 57 -104 57 -290 1 -107 -4 -189 -12 -221
-31 -120 -136 -136 -179 -27 -15 40 -18 77 -18 233 0 210 5 247 41 290 29 34
75 40 111 15z"/>
<path d="M11954 9520 c-143 -81 -233 -254 -265 -505 -18 -146 -6 -504 20 -620
44 -189 132 -315 265 -380 132 -65 300 -67 426 -7 76 37 168 131 208 214 56
115 92 295 91 451 l0 82 -162 167 -162 167 0 -307 c0 -261 -3 -319 -18 -384
-31 -131 -92 -188 -190 -175 -50 7 -85 32 -110 80 -42 81 -49 133 -54 403 -9
427 24 568 138 607 l37 13 -80 104 c-44 58 -83 108 -86 112 -4 4 -30 -6 -58
-22z"/>
<path d="M22890 9299 c-123 -24 -245 -122 -306 -244 -76 -155 -110 -405 -93
-690 12 -212 48 -359 109 -456 165 -256 550 -291 744 -68 48 55 108 182 130
274 53 225 48 611 -10 813 -41 143 -132 271 -232 325 -92 50 -228 68 -342 46z
m187 -269 c37 -22 66 -74 91 -163 26 -94 25 -642 -1 -737 -36 -132 -81 -180
-167 -180 -85 0 -134 49 -167 170 -16 56 -18 108 -18 380 0 272 2 324 18 380
22 82 44 119 87 147 42 29 112 31 157 3z"/>
<path d="M10730 9247 c-19 -6 -56 -32 -81 -57 -83 -83 -115 -215 -106 -440 4
-99 11 -153 27 -203 47 -151 183 -232 329 -197 153 36 225 183 225 455 -1 205
-34 316 -116 392 -25 23 -63 46 -84 52 -49 14 -148 12 -194 -2z m135 -137 c17
-6 34 -27 48 -57 20 -44 22 -63 22 -248 0 -218 -7 -260 -52 -295 -55 -43 -112
-18 -139 63 -15 42 -18 85 -18 227 1 222 17 285 79 311 27 11 30 11 60 -1z"/>
<path d="M24412 9027 c-38 -68 -124 -145 -213 -192 l-69 -36 0 -94 0 -95 24
10 c54 20 145 71 189 104 26 20 49 36 52 36 3 0 5 -173 5 -385 l0 -385 105 0
105 0 -2 543 -3 542 -81 3 -82 3 -30 -54z"/>
<path d="M21600 8940 c-128 -60 -182 -189 -182 -435 0 -251 42 -363 161 -433
40 -24 56 -27 131 -27 75 0 91 3 133 28 61 36 102 93 130 181 19 62 22 93 22
246 0 153 -3 184 -22 246 -45 141 -120 205 -252 211 -62 3 -85 0 -121 -17z
m169 -156 c37 -47 45 -100 45 -284 0 -187 -10 -248 -47 -287 -22 -25 -74 -31
-107 -13 -10 5 -27 31 -37 57 -27 71 -27 415 0 485 21 55 37 67 89 68 28 0 41
-6 57 -26z"/>
<path d="M12975 7567 c-33 -68 -128 -171 -210 -228 -27 -19 -86 -52 -130 -75
l-80 -41 0 -134 c0 -128 1 -134 20 -131 43 7 225 103 293 156 40 31 74 56 77
56 3 0 5 -254 5 -565 l0 -565 150 0 150 0 0 795 0 795 -122 0 -123 0 -30 -63z"/>
<path d="M11617 7485 c-35 -73 -147 -171 -249 -219 l-38 -17 0 -94 c0 -52 3
-95 8 -95 18 0 170 84 209 116 l43 35 0 -385 0 -386 105 0 105 0 0 540 0 540
-83 0 -83 0 -17 -35z"/>
<path d="M18585 7358 c-33 -10 -143 -41 -244 -68 -125 -34 -198 -59 -230 -79
-25 -17 -72 -42 -103 -56 l-58 -26 0 -135 c0 -84 4 -134 10 -134 45 0 236 103
326 176 l54 44 2 -567 3 -568 153 -3 152 -3 0 721 c0 396 -1 720 -2 719 -2 -1
-30 -10 -63 -21z"/>
<path d="M14331 7314 c-60 -30 -100 -80 -130 -159 -58 -155 -51 -456 14 -586
84 -165 315 -199 435 -63 59 67 87 160 96 314 8 121 -7 256 -37 335 -47 126
-128 185 -254 185 -57 0 -82 -5 -124 -26z m182 -141 c34 -32 47 -107 47 -284
0 -93 -5 -190 -11 -218 -13 -61 -47 -101 -88 -101 -46 0 -60 9 -84 54 -21 39
-22 53 -22 256 0 195 2 219 20 255 32 64 91 80 138 38z"/>
<path d="M15286 7282 c-18 -30 -48 -199 -55 -321 -14 -225 5 -449 51 -599 75
-246 297 -386 544 -343 233 41 372 229 414 561 17 138 9 515 -13 536 -5 6
-265 43 -303 44 -7 0 -8 -22 -1 -72 13 -109 2 -570 -15 -639 -32 -123 -84
-179 -165 -179 -84 0 -130 41 -164 149 -20 59 -22 95 -27 337 -4 244 5 407 24
457 3 9 -31 21 -121 41 -68 15 -133 30 -144 33 -10 3 -21 0 -25 -5z"/>
<path d="M17268 7113 l-58 -4 0 -334 0 -335 105 0 105 0 0 340 0 340 -47 -2
c-27 -1 -74 -3 -105 -5z"/>
<path d="M19772 7096 c-141 -46 -206 -190 -206 -451 1 -199 31 -311 105 -383
50 -49 86 -64 161 -70 96 -7 152 11 209 68 82 82 116 222 106 438 -10 217 -58
326 -170 383 -50 26 -149 33 -205 15z m136 -151 c40 -29 56 -112 56 -295 1
-176 -11 -253 -45 -289 -27 -28 -62 -36 -96 -19 -58 28 -77 120 -71 348 5 177
16 223 59 254 29 20 68 21 97 1z"/>
<path d="M16963 7093 c-13 -2 -23 -11 -23 -19 0 -17 24 -12 70 12 l25 13 -25
-1 c-14 0 -35 -3 -47 -5z"/>
<path d="M12159 5466 c-131 -47 -199 -203 -199 -454 1 -168 31 -288 91 -356
50 -57 104 -86 174 -93 149 -15 256 69 301 237 25 91 25 349 1 437 -44 166
-134 244 -276 243 -31 -1 -72 -7 -92 -14z m155 -159 c34 -34 46 -107 46 -287
0 -239 -23 -310 -102 -310 -86 0 -108 63 -108 301 0 252 21 319 101 319 28 0
47 -7 63 -23z"/>
<path d="M16930 13065 l0 -3775 995 0 995 0 0 3775 0 3775 -995 0 -995 0 0
-3775z"/>
<path d="M14730 11120 l0 -1830 900 0 900 0 0 1830 0 1830 -900 0 -900 0 0
-1830z"/>
</g>
</svg>
